<mxfile host="app.diagrams.net" agent="Mozilla/5.0 (Windows NT 10.0; Win64; x64) AppleWebKit/537.36 (KHTML, like Gecko) Chrome/134.0.0.0 Safari/537.36 OPR/119.0.0.0" version="27.1.3">
  <diagram name="Страница — 1" id="eBDsB5omE6cogJzqJREH">
    <mxGraphModel dx="1280" dy="580" grid="1" gridSize="10" guides="1" tooltips="1" connect="1" arrows="1" fold="1" page="1" pageScale="1" pageWidth="827" pageHeight="1169" math="0" shadow="0">
      <root>
        <mxCell id="0" />
        <mxCell id="1" parent="0" />
        <mxCell id="3H1NZ4z_t5nQ-xVwXY13-14" style="edgeStyle=orthogonalEdgeStyle;rounded=0;orthogonalLoop=1;jettySize=auto;html=1;entryX=0.5;entryY=0;entryDx=0;entryDy=0;" edge="1" parent="1" source="3H1NZ4z_t5nQ-xVwXY13-1" target="3H1NZ4z_t5nQ-xVwXY13-13">
          <mxGeometry relative="1" as="geometry" />
        </mxCell>
        <mxCell id="3H1NZ4z_t5nQ-xVwXY13-1" value="RESTful API (DRF)" style="rounded=1;whiteSpace=wrap;html=1;" vertex="1" parent="1">
          <mxGeometry x="350" y="220" width="120" height="60" as="geometry" />
        </mxCell>
        <mxCell id="3H1NZ4z_t5nQ-xVwXY13-4" style="edgeStyle=orthogonalEdgeStyle;rounded=0;orthogonalLoop=1;jettySize=auto;html=1;entryX=0.5;entryY=0;entryDx=0;entryDy=0;" edge="1" parent="1" source="3H1NZ4z_t5nQ-xVwXY13-2" target="3H1NZ4z_t5nQ-xVwXY13-1">
          <mxGeometry relative="1" as="geometry" />
        </mxCell>
        <mxCell id="3H1NZ4z_t5nQ-xVwXY13-2" value="Frontend" style="rounded=1;whiteSpace=wrap;html=1;" vertex="1" parent="1">
          <mxGeometry x="350" y="80" width="120" height="40" as="geometry" />
        </mxCell>
        <mxCell id="3H1NZ4z_t5nQ-xVwXY13-6" style="edgeStyle=orthogonalEdgeStyle;rounded=0;orthogonalLoop=1;jettySize=auto;html=1;entryX=0;entryY=0.5;entryDx=0;entryDy=0;" edge="1" parent="1" source="3H1NZ4z_t5nQ-xVwXY13-5" target="3H1NZ4z_t5nQ-xVwXY13-2">
          <mxGeometry relative="1" as="geometry" />
        </mxCell>
        <mxCell id="3H1NZ4z_t5nQ-xVwXY13-7" style="edgeStyle=orthogonalEdgeStyle;rounded=0;orthogonalLoop=1;jettySize=auto;html=1;entryX=0;entryY=0.5;entryDx=0;entryDy=0;" edge="1" parent="1" source="3H1NZ4z_t5nQ-xVwXY13-5" target="3H1NZ4z_t5nQ-xVwXY13-1">
          <mxGeometry relative="1" as="geometry" />
        </mxCell>
        <mxCell id="3H1NZ4z_t5nQ-xVwXY13-5" value="JWT&lt;div&gt;Authorization&lt;/div&gt;" style="rhombus;whiteSpace=wrap;html=1;" vertex="1" parent="1">
          <mxGeometry x="150" y="125" width="120" height="110" as="geometry" />
        </mxCell>
        <mxCell id="3H1NZ4z_t5nQ-xVwXY13-8" value="PostgreSQL" style="shape=cylinder3;whiteSpace=wrap;html=1;boundedLbl=1;backgroundOutline=1;size=15;" vertex="1" parent="1">
          <mxGeometry x="548" y="207" width="90" height="85" as="geometry" />
        </mxCell>
        <mxCell id="3H1NZ4z_t5nQ-xVwXY13-12" value="" style="endArrow=none;html=1;rounded=0;exitX=1;exitY=0.5;exitDx=0;exitDy=0;" edge="1" parent="1">
          <mxGeometry width="50" height="50" relative="1" as="geometry">
            <mxPoint x="469" y="250" as="sourcePoint" />
            <mxPoint x="549" y="250" as="targetPoint" />
            <Array as="points">
              <mxPoint x="469" y="250" />
            </Array>
          </mxGeometry>
        </mxCell>
        <mxCell id="3H1NZ4z_t5nQ-xVwXY13-13" value="Celery" style="ellipse;whiteSpace=wrap;html=1;" vertex="1" parent="1">
          <mxGeometry x="362" y="345" width="96" height="50" as="geometry" />
        </mxCell>
        <mxCell id="3H1NZ4z_t5nQ-xVwXY13-15" value="Redis" style="rounded=1;whiteSpace=wrap;html=1;" vertex="1" parent="1">
          <mxGeometry x="537" y="350" width="112" height="40" as="geometry" />
        </mxCell>
        <mxCell id="3H1NZ4z_t5nQ-xVwXY13-16" value="" style="endArrow=classic;startArrow=classic;html=1;rounded=0;entryX=0;entryY=0.5;entryDx=0;entryDy=0;" edge="1" parent="1" target="3H1NZ4z_t5nQ-xVwXY13-15">
          <mxGeometry width="50" height="50" relative="1" as="geometry">
            <mxPoint x="458" y="370" as="sourcePoint" />
            <mxPoint x="508" y="320" as="targetPoint" />
          </mxGeometry>
        </mxCell>
      </root>
    </mxGraphModel>
  </diagram>
</mxfile>
